<svg width="488" height="251" viewBox="0 0 488 251" fill="none" xmlns="http://www.w3.org/2000/svg">
<path d="M450.508 70.9167C448.151 74.4537 444.713 78.7079 442.011 81.7674C441.162 82.7319 441.279 81.9741 440.652 82.6627C439.425 84.0095 438.532 85.4448 437.298 86.727C436.887 87.1501 436.88 86.2134 436.461 86.6647C434.168 89.1366 432.31 91.6706 430.101 94.1502C419.012 106.598 407.9 118.436 395.545 129.875C391.447 133.672 386.246 137.686 381.954 141.674C381.464 142.131 382.102 142.263 382.033 142.378C380.936 144.172 380.765 142.947 379.687 143.678C375.488 146.511 370.861 150.153 367.038 153.289C365.413 154.622 367.71 154.178 365.675 154.983C365.535 155.039 365.632 154.283 365.139 154.578C364.005 155.261 362.154 156.733 361.239 157.334C359.555 158.433 359.289 158.627 357.744 159.696C355.631 161.15 352.988 162.6 350.819 164.152C350.357 164.485 351.295 164.547 350.584 165.12C349.9 165.679 347.695 167.016 346.922 167.336C346.137 167.666 346.21 167.102 346.03 167.094C344.546 167.012 342.724 169.483 342.423 169.691C337.101 173.416 331.399 175.708 325.954 178.343C321.547 180.478 317.066 182.685 312.816 184.335C307.634 186.335 303.433 187.479 298.276 189.1C297.743 189.265 298.56 189.71 297.908 189.912C291.091 192.021 283.996 193.587 276.751 194.262C276.029 194.328 276.861 193.613 276.137 193.643C271.76 193.871 264.735 193.357 262.313 195.975C259.375 196.042 255.591 196.003 252.985 195.444C251.291 195.082 252.957 194.492 250.869 194.703C250.382 194.747 250.995 195.321 250.264 195.344C247.172 195.434 243.953 195.015 240.952 194.967C240.331 194.956 240.442 195.467 240.257 195.536C238.691 196.088 236.44 194.559 235.947 194.39C232.19 193.15 229.128 192.788 225.586 191.897C224.76 191.685 225.575 192.577 224.773 192.395C220.452 191.39 216.249 189.982 212.337 188.136C211.485 187.729 212.498 187.519 212.104 187.297C210.375 186.32 209.596 187.154 207.891 186.148C207.538 185.937 207.947 185.589 207.901 185.51C207.195 184.275 205.803 184.922 205.521 184.816C202.053 183.529 200.426 181.229 197.348 179.549C196.976 179.344 197.465 180.373 196.439 179.762C189.448 175.589 182.806 169.767 178.192 163.084C177.493 162.064 178.4 162.477 178.396 162.38C178.347 160.867 176.881 160.855 176.608 160.546C174.467 158.074 173.869 154.931 171.673 153.56C170.235 150.176 169.141 146.619 168.663 142.987C167.309 132.994 168.067 122.28 173.173 113.429C173.259 113.279 173.664 113.802 173.83 113.504C175.914 110.002 174.789 110.294 175.297 107.326C175.447 106.549 177.791 105.573 177.979 105.506C178.674 105.188 178.952 106.269 179.143 106.133C180.684 105.055 178.232 103.448 179.968 101.498C180.026 101.442 180.191 102.05 180.374 101.927C180.943 101.55 181.25 100.925 181.842 100.593C183.217 99.8403 184.492 100.534 185.662 98.4922C185.821 98.2375 184.412 97.2203 186.302 95.8783C187.031 95.3163 190.428 93.0684 191.496 92.6509C192.541 92.1971 192.11 93.0363 192.193 93.0162C195.178 92.2346 194.301 93.035 196.054 93.3423C197.783 93.6957 196.444 91.6135 196.904 91.1208C197.369 90.6181 199.626 90.392 200.193 90.4264C200.762 90.4484 200.239 90.9747 200.72 90.935C203.889 90.725 201.676 89.3672 202.576 88.6995C204.774 87.1495 207.079 88.5519 209.281 88.4227C209.883 88.3902 209.341 88.0437 209.871 87.9366C211.989 87.5368 213.3 88.0013 215.718 87.4361C216.105 87.3393 218.131 86.2558 219.385 87.1404C219.559 87.267 219.023 87.6871 219.925 87.8456C221.283 88.0773 223.668 88.4498 225.138 88.5529C226.214 88.6248 225.127 87.672 226.428 88.1451C227.003 88.3612 225.824 88.5774 226.902 88.9496C227.98 89.3069 230.751 89.9824 231.798 90.3017C232.845 90.6056 232.444 89.8913 232.539 89.8799C233.128 89.8224 235.211 90.2547 235.39 90.3315C244.38 93.6167 251.137 99.5161 257.511 105.922C258.014 106.434 258.132 105.679 258.213 105.753C260.06 107.439 257.585 107.043 258.286 108.663C259.05 107.695 259.536 108.575 260.708 109.847C261.272 110.463 261.364 109.819 261.449 109.849C262.144 110.138 262.421 110.631 262.518 111.071C262.613 111.481 262.554 111.842 262.544 111.983C262.464 113.064 263.636 113.35 263.546 114.072C263.446 114.779 262.217 114.093 263.065 115.444C263.671 115.607 264.014 113.98 264.814 114.954C268.179 118.711 269.956 127.955 269.797 131.806C269.882 135.671 269.767 136.917 269.364 139.122C268.47 143.059 269.52 141.732 269.334 144.316C269.056 146.888 267.371 145.119 266.851 145.347C266.329 145.553 266.662 146.042 266.301 146.379C265.94 146.71 265.927 145.748 265.539 146.664C265.167 147.585 264.951 150.382 265.224 150.903C265.836 151.982 267.307 151.233 265.865 153.597C265.78 153.731 265.495 153.044 265.197 153.565C262.835 157.714 260.28 161.893 257.27 165.505C256.856 166 256.695 165.18 256.448 165.462C253.855 168.364 255.492 167.84 255.075 170.244C254.176 168.932 252.749 169.311 250.874 171.545C249.738 172.883 250.434 173.077 250.029 174.251C249.908 174.606 248.736 175.243 248.814 175.617C249.059 176.852 250.722 176.737 248.289 178.7C248.181 178.784 248.069 178.091 247.726 178.408C245.508 180.43 246.005 181.442 243.781 183.816C242.01 185.706 238.254 188.294 235.981 190.116C234.9 188.81 233.145 190.836 233.01 192.467C231.565 193.614 229.986 194.977 228.487 195.95C227.947 196.304 227.976 195.656 227.879 195.664C226.396 195.769 226.488 197.132 226.195 197.412C223.269 200.134 220.13 201.579 217.367 203.995L217.39 203.98C217.133 204.215 216.857 204.486 216.587 204.776C216.492 204.882 216.997 205.967 215.6 205.923C215.504 205.92 216.288 204.681 214.693 205.798C213.079 206.943 209.699 208.574 207.597 210.426C207.109 210.872 206.08 212.56 204.487 212.526C204.282 212.516 204.302 212.127 203.99 212.074C202.995 211.902 203.063 213.194 201.754 212.679C200.443 212.161 198.346 212.266 196.041 213.784C195.969 213.83 195.641 214.94 194.822 215.177C193.484 215.569 191.558 215.88 190.151 216.199C189.49 216.351 190.04 216.829 189.927 216.865C185.427 218.16 182.014 218.06 177.061 218.08C176.135 218.085 173.567 218.948 171.753 218.281C169.856 217.539 171.906 214.76 167.532 215.241C165.834 215.417 163.227 218.894 160.207 216.626C153.95 216.333 148.498 214.286 142.304 213.461C142.029 213.424 140.883 214.19 140.252 214.013C139.324 213.751 138.928 213.153 138.261 212.942C135.409 212.024 132.812 211.689 130.049 210.761C129.019 210.413 129.544 210.063 128.344 209.65C127.147 209.235 126.133 209.587 124.555 208.722C124.379 208.625 124.21 208.505 124.045 208.369C123.126 207.594 122.339 206.281 120.987 205.667C120.489 206.878 119.373 206.46 117.254 206.068C116.847 205.994 117.106 206.57 116.905 206.557C116.084 206.512 115.526 205.909 114.736 205.895C114.545 205.89 114.384 206.307 114.218 206.327C112.802 206.514 111.19 204.849 110.916 204.561C109.865 203.463 109.055 203.782 108.167 203.17C107.272 202.556 108.861 202.801 107.766 202.221C105.504 201.023 102.429 199.929 100.031 198.98C99.0765 198.606 99.514 199.414 99.3724 199.373C97.3257 198.745 95.5652 197.375 94.0248 198.046C93.7766 194.647 92.7217 197.856 90.1143 196.16C89.9093 196.025 90.157 194.56 91.1019 194.706C92.024 194.843 93.1534 195.778 94.4718 195.939C94.7697 195.973 96.8933 195.343 97.1324 195.347C99.0974 195.423 98.5387 197.533 98.5912 197.682C99.1698 199.287 101.666 198.677 102.218 198.78C104.76 199.257 106.677 200.31 108.784 200.745C110.161 201.032 110.785 199.746 111.792 200.166C115.135 201.555 115.656 203.856 119.45 203.385C120.264 203.284 120.095 201.579 122.156 203.599C122.284 203.726 123.757 205.424 125.044 205.116C125.101 205.103 125.155 205.042 125.209 204.968C125.312 204.833 125.415 204.657 125.54 204.673C126.813 204.846 127.488 205.452 128.814 205.703C130.132 205.951 131.728 206.185 133.174 206.784C134.035 207.142 134.922 208.283 135.283 208.602C136.27 209.51 137.903 208.951 138.448 209.846C139.017 210.75 137.243 211.413 139.117 212.4C139.492 211.282 139.968 210.158 140.385 209.044C144.703 210.22 148.881 211.553 153.299 212.288C153.846 212.377 153.399 211.656 153.984 211.733C156.39 212.047 158.542 212.824 161.102 212.944C163.112 213.038 165.329 212.567 167.369 212.52C168.534 213.948 171.618 213.615 173.853 213.707C174.623 213.742 174.576 214.101 175.12 214.207C177.26 214.58 176.218 213.416 176.782 213.208C179.104 212.288 179.55 214.972 182.444 214.595C182.619 214.578 184.261 212.915 184.486 212.784C186.01 211.958 184.834 213.24 185.859 213.18C187.681 213.062 189.051 213.14 191.069 212.194C191.645 211.92 192.859 210.657 194.192 210.951C194.369 210.989 194.432 211.467 194.562 211.454C196.976 211.134 196.5 209.689 197.525 208.746C198.531 207.808 200.769 207.898 201.285 207.967C202.599 208.175 200.68 208.63 200.646 208.721C200.375 209.835 201.72 209.049 202.771 208.586C203.603 209.81 205.026 208.941 203.877 208.083C203.754 207.99 203.018 208.536 202.771 208.586C203.049 206.829 204.392 205.895 206.793 205.967C207.902 205.997 207.586 207.115 209.822 205.277C210.813 204.44 209.85 203.885 210.604 203.008C211.599 201.872 213.029 200.937 214.701 199.993L214.767 199.95C215.928 199.349 217.074 198.742 218.103 197.937C218.842 197.349 217.767 197.435 218.272 197.008C219.698 195.808 221.191 195.222 222.5 193.966C222.621 193.849 221.946 193.637 222.401 193.283C225.76 190.637 228.858 188.603 232.228 185.689C233.88 184.269 236.477 181.47 238.118 179.969C240.956 177.41 244.856 174.544 246.852 171.947C248.164 170.246 247.408 170.226 247.695 169.282C248.24 167.473 251.2 165.908 251.621 165.69C251.637 165.685 250.627 167.211 251.458 166.622C252.295 166.55 251.611 165.707 251.621 165.69C251.907 165.566 254.163 162.702 254.462 162.037C254.633 161.681 254.058 161.553 254.154 161.374C256.454 157.121 258.65 152.959 260.645 148.711C260.686 148.638 261.207 148.984 261.297 148.808C262.559 146.355 262.37 144.417 262.452 142.219C262.526 140.001 262.887 138.43 264.057 137.247C264.099 135.614 264.58 133.296 264.752 131.911C264.932 130.525 263.702 130.473 263.67 130.364C262.431 126.919 262.555 124.832 261.109 121.272C260.444 119.601 258.486 116.618 257.117 115.045C257.11 115.037 257.103 115.028 257.096 115.02C256.028 113.756 255.632 112.815 254.537 111.797C254.39 111.661 254.117 112.158 254.062 112.125C252.5 111.288 253.99 111.036 253.935 110.621C253.712 109.118 253.508 108.214 251.662 106.966C251.226 106.666 248.904 107.054 248.183 106.58C247.236 105.951 247.986 105.705 246.946 105.064C246.857 105.011 246.616 105.341 246.047 104.872C243.413 102.708 240.34 100.491 237.108 98.9908C236.667 98.7849 236.946 99.641 236.31 99.3597C233.343 98.0497 229.979 96.8667 226.962 95.8616C226.213 95.6115 226.793 95.2739 226.656 95.1034C225.784 94.0605 224.078 94.9782 223.844 94.9674C218.045 94.6688 213.486 93.6226 207.703 95.2077C207.369 95.2894 205.307 97.0662 203.979 96.3297C203.897 96.2761 202.498 95.5149 201.823 96.5658C201.785 96.6314 202.605 96.9544 201.482 97.2893C200.352 97.6292 198.781 98.691 197.07 98.8397C196.537 98.8807 194.882 98.4607 194.014 100.031C193.921 100.144 193.115 103.063 191.665 102.42C191.429 102.317 190.638 101.023 189.654 102.764C189.476 103.098 190.167 102.956 189.597 103.692C188.739 104.813 187.114 105.787 186.463 107.48C186.341 107.781 186.3 109.333 185.102 109.629C184.912 109.678 184.708 109.138 184.34 109.52C182.579 111.358 181.459 113.805 180.054 115.977C179.557 116.759 179.028 115.993 178.434 116.816C177.831 117.647 176.946 119.442 176.985 120.571C177.03 121.678 178.559 120.973 178.248 122.43C176.984 128.634 176.056 135.143 176.832 141.883C176.845 141.999 176.859 142.116 176.874 142.233C177.002 143.105 177.312 142.308 177.574 143.579C178.352 148.39 183.416 156.046 185.941 160.12C187.969 163.546 184.215 160.265 186.021 162.718C186.882 163.869 189.047 163.917 189.324 164.116C192.131 166.136 193.454 168.06 196.08 169.765C196.607 170.1 196.468 169.257 196.911 169.544C198.418 170.512 199.916 171.834 201.434 172.715C202.107 173.103 202.222 172.637 202.817 173.035C204.245 173.978 205.52 174.907 206.845 176.076C206.964 176.182 205.781 176.21 206.909 176.817C208.721 177.787 211.004 179.322 213.414 179.845C214.129 179.996 214.532 179.041 215.704 180.274C215.953 180.529 215.113 181.562 217.206 181.183C217.571 181.135 220.902 180.753 222.007 182.07C222.301 182.422 222.969 183.699 223.866 183.788C223.987 183.796 223.684 183.126 224.398 183.272C226.965 183.807 229.437 184.468 232.074 184.826C232.773 184.918 231.862 184.144 232.898 184.296C235.774 184.718 239.141 185.38 241.976 185.872C243.012 186.054 242.24 186.454 242.309 186.514C243.432 187.491 244.236 186.406 244.638 186.375C247.127 186.186 249.007 186.833 251.361 186.765C251.986 186.745 251.559 186.185 251.684 186.139C252.979 185.694 251.998 186.655 252.815 186.781C255.107 187.132 257.728 187.062 260.138 186.893C260.998 186.83 260.009 186.236 260.77 186.187C265.25 185.879 270.139 185.45 274.572 185.133C275.423 185.072 274.968 185.636 275.161 185.72C276.498 186.309 278.127 184.946 278.519 184.77C280.319 183.973 281.042 184.27 282.648 183.857C290.576 181.835 300.171 179.205 307.393 176.594C316.841 173.182 324.045 170.255 332.549 165.451C333.094 165.141 332.226 164.878 332.691 164.603C338.386 161.257 344.489 157.779 349.889 153.894C350.344 153.568 349.331 153.51 350.048 152.97C351.518 151.859 353.47 150.537 355.138 149.585C355.951 149.119 355.242 150.279 356.055 149.799C357.923 148.701 359.719 147.431 361.415 146.024C362.131 145.427 360.631 145.773 361.589 145.036C368.267 139.869 374.195 134.797 381.185 129.622C381.639 129.289 382.865 129.911 383.592 128.917C383.419 128.593 383.133 128.287 382.906 127.979C391.654 119.72 400.428 111.456 408.684 102.427C409.025 102.053 407.935 102.246 408.592 101.521C412.364 97.3511 416.049 92.8092 420.284 88.7811C420.701 88.382 421.432 89.3767 422.377 87.9506C422.543 87.7009 424.054 85.6096 424.275 84.9236C424.302 84.8284 423.571 84.8424 424.084 84.1854C427.038 80.4182 430.5 76.2243 433.612 72.7114C434.124 72.1332 434.098 73.1463 434.467 72.7369C437.086 69.8275 439.3 66.0986 442.003 63.3032C443.816 61.4279 444.085 62.8034 445.715 62.2738C445.946 62.1992 446.909 60.8963 447.436 61.1692C448.766 61.8539 449.623 63.4398 451.094 64.0943C451.41 64.2378 452.39 62.2336 452.302 63.7713C452.294 63.8781 451.588 65.3322 451.585 65.8117C451.582 66.1455 452.355 66.0959 452.23 66.6917C452.104 67.2875 451.34 67.4893 451.036 68.4024C450.734 69.3163 451.522 69.3933 450.508 70.9167ZM264.958 125.558C265.141 124.111 263.09 124.569 263.95 125.745C263.993 125.801 264.948 125.631 264.958 125.558ZM148.558 213.032C150.161 214.309 151.6 213.194 150.512 212.257C149.428 211.318 148.073 212.643 148.558 213.032ZM130.041 208.832C131.898 210.175 133.098 207.437 130.705 207.321C130.572 207.315 129.937 208.755 130.041 208.832ZM442.19 67.5978C442.224 67.5991 442.924 66.6931 442.918 66.6542C442.744 65.7701 441.345 67.5801 442.19 67.5978ZM111.909 203.299C112.403 203.91 114.381 204.139 113.767 203.383C113.275 202.776 111.296 202.54 111.909 203.299ZM209.479 89.427C209.454 89.3973 208.642 89.4872 208.685 89.6605C208.827 90.2102 209.91 89.8967 209.479 89.427ZM81.8339 191.622C86.1968 193.521 87.9759 196.872 83.2504 194.668C82.3955 194.268 85.4244 194.704 84.3989 194.051C82.5402 192.864 80.5818 193.73 78.8226 192.111C78.5179 191.823 81.5682 191.503 81.8426 191.622C81.8397 191.622 81.8368 191.622 81.8339 191.622ZM267.16 124.109C267.183 124.074 266.871 122.999 266.832 122.982C266.022 122.626 266.64 124.749 267.16 124.109ZM172.503 116.532C172.41 116.558 171.485 119.101 171.528 119.214C172.126 120.836 173.94 115.819 172.503 116.532ZM235.917 190.112C235.413 191.437 234.334 192.458 233.015 192.464C234.016 191.686 234.945 190.902 235.917 190.112ZM43.0712 207.673C42.8888 207.214 43.0838 206.613 43.3515 206.156C43.4345 206.012 43.8055 206.085 43.8795 205.986C44.0238 205.792 43.8418 205.612 44.0137 205.421C44.0725 205.358 44.6602 205.437 44.7084 205.37C44.9681 205.006 44.8184 204.662 44.9434 204.293C45.5598 202.476 45.7804 200.691 46.0482 198.852C46.136 198.245 46.6694 197.508 46.4362 196.882C46.4084 196.809 45.8925 196.853 45.85 196.839C45.199 196.621 46.2405 196.693 46.3789 196.551C46.9253 195.985 46.9728 195.357 46.7737 194.813C46.6875 194.581 45.6628 194.813 46.2379 194.58C46.2768 194.564 46.8246 194.623 46.8831 194.559C47.0145 194.415 46.9166 194.142 46.96 194.031C47.0464 193.816 47.0409 193.78 47.0471 193.577C47.0604 193.299 47.3328 192.968 47.2086 192.67C47.1805 192.606 46.6189 192.69 46.5233 192.589C46.4279 192.487 46.4755 192.218 46.6079 192.128C46.7404 192.037 47.1818 192.075 47.283 192.059C48.1369 191.927 46.9542 191.616 46.9249 191.576C46.4265 190.847 47.1003 190.221 47.0984 189.536C47.0955 189.016 46.8731 188.46 46.9036 187.966C46.9421 187.376 47.2464 186.877 47.1941 186.304C47.1892 186.244 46.5289 186.314 46.5216 186.241C46.5137 186.16 46.5073 186.079 46.5028 185.998C46.4636 185.296 46.5628 184.597 46.9625 183.897C47.0078 183.819 47.5876 183.92 47.6675 183.841C48.1439 183.362 49.2885 182.605 46.7643 182.32C46.8629 181.996 46.9647 181.602 47.4735 181.312C47.801 181.124 48.4326 181.306 48.1631 181.076C48.103 181.025 47.5499 181.092 47.5017 181.014C47.2992 180.687 47.479 180.329 47.1932 180.005C47.1338 179.939 46.6382 179.957 46.549 179.939C45.8262 179.782 47.021 179.521 47.1078 179.464C47.7552 179.03 47.5004 178.714 47.5162 178.31C47.5202 178.216 46.8545 178.327 46.8344 178.237C46.7389 177.769 46.7962 177.285 47.0916 176.827C47.1589 176.725 47.7259 176.819 47.7871 176.77C48.05 176.555 46.9789 176.508 47.2103 176.302C47.2577 176.259 47.7432 176.283 47.7965 176.275C48.6334 176.151 47.4476 176.044 47.4214 176.012C47.0637 175.609 48.3016 175.351 48.1263 174.962C48.1041 174.915 47.4899 175.02 47.465 174.889C47.2954 174.017 47.4641 173.094 47.9555 172.231C48.031 172.096 48.4924 172.192 48.5493 172.184C49.4381 172.046 48.2472 171.957 48.2024 171.913C47.8796 171.568 48.8782 171.245 47.4598 171.011C47.9521 169.548 47.1556 168.092 48.4263 166.642C48.441 166.623 49.0275 166.656 49.0543 166.619C49.3836 166.176 48.4721 166.261 47.3573 165.968C47.0774 165.894 48.4233 165.67 48.522 165.65C48.8855 165.577 49.7581 165.653 49.8285 165.628C50.3814 165.428 47.4958 165.46 47.4949 165.19C47.4997 165.181 48.0308 165.217 48.0836 165.194C48.0991 165.187 48.1113 165.181 48.1209 165.174L47.8621 163.661L50 163.295C50.0639 163.388 50.1272 163.23 50.1899 163.395C50.3479 163.818 50.4042 165.221 50.6457 164.405C50.6763 164.299 50.6296 162.662 50.8713 162.739C50.9676 162.771 51.3941 162.743 51.5136 162.849C51.633 162.955 51.5511 163.483 51.5596 163.506C51.8812 164.203 51.7593 164.492 51.9204 165.525C52.0816 166.554 52.0369 164.1 52.1026 163.826C52.1684 163.553 52.4042 164.128 52.4622 164.329C52.5201 164.529 52.4479 164.864 52.4994 164.977C52.8409 165.717 52.6493 163.759 52.7618 163.37C53.0271 162.448 53.2338 164.267 53.4767 164.446C53.5424 164.494 53.4888 164.079 53.5473 164.041C53.7791 163.893 53.9185 164.46 54.1822 163.94C54.2253 163.855 54.4385 162.761 54.5764 163.564C54.596 163.68 54.5405 164.133 54.6392 164.235C54.7868 164.387 55.0527 164.486 55.2113 164.335C55.3284 164.222 55.1942 163.475 55.3416 163.707C55.4071 163.811 55.2857 164.248 55.4088 164.406C55.5312 164.565 55.8442 164.545 55.9633 164.53C56.0822 164.515 56.0172 163.948 56.0268 163.91C56.0849 163.691 56.3131 163.418 56.3333 163.419C57.3504 163.349 58.2883 164.305 59.2786 163.988C59.3563 163.964 59.3045 163.367 59.3164 163.357C59.5824 163.107 59.3727 164.696 59.5585 165.227C59.5317 164.015 59.6414 164.234 59.8288 164.101C59.9191 164.036 59.8699 163.567 59.8782 163.518C60.0121 162.805 60.1053 163.727 60.1294 163.915C60.218 164.608 60.3146 163.789 60.3749 164.252C60.4352 164.712 60.2964 165.394 60.4762 165.386C60.5266 164.951 60.3931 163.817 60.5296 163.633C61.0445 162.937 62.0055 163.828 62.4195 163.92C62.8327 164.012 62.9661 163.932 63.2068 164.089C63.6417 164.373 63.4823 163.531 63.7524 163.146C64.0232 162.761 63.8915 164.832 63.9304 165.277C63.9687 165.722 64.0104 165.264 64.0579 165.509C64.1053 165.753 64.0027 166.056 64.1142 166.148C64.2256 166.24 64.5305 165.448 64.57 164.982C64.6535 163.996 64.5162 162.961 64.8112 163.325C64.8282 163.346 64.7731 163.891 64.8381 163.946C65.3541 164.365 65.8902 164.391 66.4056 164.762C66.4764 164.814 66.4131 165.419 66.4543 165.456C66.8839 165.844 66.7303 164.822 66.9658 163.688C66.9129 165.198 67.0431 166.122 67.3691 166.131C67.5651 166.137 67.5313 165.477 67.6581 165.012C67.6961 164.872 67.8348 165.325 67.8599 165.015C67.9428 164.001 67.8122 162.866 68.1483 163.318C68.1631 163.339 68.1161 163.894 68.1671 163.928C68.4965 164.148 68.5359 163.087 68.8919 162.959C69.171 162.858 69.6674 163.505 69.9851 163.61C69.9822 164.357 70.0386 164.7 70.1132 164.75L70.1243 164.75C70.2174 164.817 70.3522 164.41 70.4376 163.756C70.6425 163.81 70.8669 163.749 71.0619 163.916C71.129 163.973 71.0711 164.463 71.0784 164.517C71.1892 165.353 71.3086 164.217 71.3543 164.174C71.8479 163.752 72.2183 164.625 72.7006 163.794C72.7178 163.764 72.7751 162.586 72.8756 163.45C72.882 163.51 72.7159 164.042 72.9314 164.089C73.1468 164.136 73.5385 164.779 73.8535 164.241C73.9297 164.111 74.1387 163.159 74.2669 163.91C74.2839 164.012 74.2535 164.35 74.277 164.539C74.3531 165.141 74.4344 163.951 74.5158 164.966C74.5973 165.981 74.8019 166.745 75.1234 166.054C75.1336 166.034 75.23 165.092 75.325 165.109C75.4766 165.138 75.6875 165.34 75.8466 165.338C75.9228 165.337 75.8894 164.749 75.9029 164.739C76.4231 164.424 76.7736 164.956 77.3158 165.197C77.4151 165.243 77.7248 164.45 77.9028 165.088C78.0983 165.785 77.8034 168.659 78.3123 167.986C78.5175 167.717 78.8638 164.07 79.1701 165.972C79.8725 165.521 80.4854 166.507 81.195 165.855C81.2269 165.826 81.352 164.809 81.4248 164.825C81.5329 164.851 81.58 165.329 81.6567 165.362C81.978 165.514 82.286 165.114 82.5977 165.186C82.7161 165.212 82.6616 165.704 82.8028 165.735C82.9439 165.766 83.0554 165.119 83.2394 165.438C83.3782 165.68 83.4886 167.01 83.6772 167.17C83.7188 165.862 83.8504 165.892 84.0946 165.553C84.1415 165.487 84.105 165.031 84.1278 164.976C84.221 164.744 84.2916 165.123 84.3809 164.87C84.4026 164.809 84.4153 164.363 84.4337 164.288C84.5906 163.633 84.7945 164.644 84.8295 164.82C84.9636 165.489 85.0496 164.91 85.159 165.174C85.2682 165.439 85.0861 165.761 85.2175 165.924C85.4899 166.259 85.8528 166.197 86.1376 166.225C86.2513 166.233 86.1892 165.635 86.2059 165.622C86.4453 165.477 86.6667 166.118 86.8284 164.933C86.9112 168.009 86.9781 164.639 87.2985 165.263C87.3238 165.313 87.3195 166.766 87.2121 166.977C87.1048 167.187 86.9623 166.729 86.8124 167.058C86.777 167.135 86.5498 168.491 86.5215 168.573C86.2999 169.211 86.3277 167.04 86.32 166.921C86.2309 165.631 85.9584 167.091 85.8941 167.191C85.6 167.648 85.3684 167.336 85.1239 167.662C84.9641 167.872 84.9118 169.293 84.7918 169.246C84.3929 169.092 84.3043 167.105 83.8798 168.815C83.7889 169.179 83.8291 170.735 83.5695 169.506C83.5532 169.428 83.366 168.305 83.2225 169.009C83.2044 169.097 83.1931 169.55 83.1714 169.588C83.0261 169.83 82.943 169.467 82.7873 169.636C82.6315 169.804 82.443 170.057 82.2744 169.899C82.1727 169.805 82.0613 168.957 82.0169 168.75C81.8918 168.151 81.7155 169.123 81.6473 168.4C81.5783 167.673 81.7789 166.578 81.5608 166.104C81.5214 167.28 81.4702 168.487 81.4255 169.67C80.9217 169.615 80.4349 169.222 79.927 169.261C79.864 169.267 79.9117 169.901 79.8437 169.924C79.557 170.017 79.3207 169.559 79.0214 169.731C78.7897 169.867 78.5222 170.53 78.2793 170.692C78.1689 169.342 77.8031 169.79 77.5493 169.66C77.4604 169.615 77.4758 169.256 77.4149 169.137C77.1847 168.697 77.2668 169.889 77.1956 170.075C76.8906 170.866 76.9368 168.173 76.6001 168.231C76.5822 168.233 76.3278 169.663 76.2955 169.751C76.0904 170.329 76.2772 169.251 76.1612 169.142C75.9493 168.942 75.8076 168.595 75.542 169.009C75.4646 169.132 75.2631 170.022 75.1371 169.326C75.1205 169.235 75.1434 168.761 75.1289 168.733C74.8648 168.262 74.8185 169.753 74.6475 170.253C74.4764 170.754 74.2595 169.719 74.2177 169.421C74.1079 168.65 74.3257 169.095 74.3347 169.02C74.4407 168.127 74.2589 168.276 74.125 168.197C74.1436 166.735 73.9513 166.817 73.986 168.121C73.9901 168.263 74.0994 168.129 74.125 168.197C73.9682 169.628 73.7545 169.806 73.559 168.46C73.4674 167.829 73.5887 167.099 73.2537 167.359C73.1017 167.476 73.1328 168.484 72.9943 168.755C72.6778 169.373 72.3124 168.424 71.9992 168.563C71.8855 168.614 71.9804 169.168 71.9022 169.222C71.6947 169.366 71.5259 168.948 71.3158 169.154C71.2968 169.174 71.3269 169.751 71.2631 169.757C70.8236 169.807 70.4448 169.497 70.002 169.423L70.1132 169.424C70.0683 169.418 70.0228 169.414 69.9767 169.413C69.7334 169.408 69.2983 169.726 69.0463 169.662C68.6094 169.555 68.0719 168.716 67.6987 168.92C67.4553 169.05 67.5087 169.627 67.4044 170.02C67.2031 170.782 66.8469 169.417 66.7989 169.206C66.7974 169.199 67.0069 169.063 66.8951 168.767C66.8302 168.15 66.8013 169.203 66.7989 169.206C66.7674 169.069 66.349 168.938 66.2659 169.049C66.2207 169.109 66.246 169.656 66.2225 169.677C65.663 170.166 65.1025 170.305 64.535 170.049C64.525 170.038 64.5401 169.427 64.5166 169.408C64.188 169.137 63.9777 169.885 63.7067 170.329C63.4358 170.773 63.221 170.624 63.0606 169.574C62.8562 169.706 62.563 169.242 62.3942 168.961C62.2254 168.679 62.2019 169.869 62.1871 169.893C61.7239 170.646 61.4562 169.965 60.9757 169.859C60.7473 169.806 60.2942 169.979 60.0469 170.109C59.8514 170.214 59.7336 169.935 59.5535 170.113C59.5292 170.137 59.5538 170.667 59.5464 170.688C59.3453 171.322 59.4419 170.026 59.4004 169.795C59.25 168.953 59.157 168.505 58.8996 168.901C58.8402 168.992 58.6673 170.857 58.5591 170.966C58.4183 171.105 58.4714 170.436 58.3241 170.598C58.3115 170.611 58.3141 171.024 58.2232 171.006C57.8011 170.927 57.3409 170.686 56.9022 170.728C56.8423 170.732 56.9191 171.386 56.8325 171.403C56.4263 171.48 55.9811 171.456 55.5853 171.15C55.4879 171.072 55.549 170.614 55.5278 170.478C55.398 169.655 55.2139 170.851 55.1835 170.874C54.4589 171.449 53.9043 170.366 53.1658 170.882C53.1256 170.912 52.8161 172.194 52.6781 171.094C52.6686 171.021 52.532 169.896 52.4113 170.665C52.4038 170.714 52.4889 171.293 52.3403 171.234C52.1918 171.175 51.9528 171.562 51.7486 170.925C51.6839 170.725 51.5312 169.603 51.3384 170.497C51.3258 170.56 51.0281 172.582 50.9219 171.187C50.9047 170.957 50.9227 169.48 50.6926 170.237C50.6486 170.384 50.7284 170.714 50.6126 170.919C50.44 171.227 50.213 170.862 50 171.446L56.2719 165.174C56.2886 165.18 56.306 165.186 56.3243 165.192C56.4408 165.231 57.4431 165.392 56.6824 165.522C56.5632 165.543 56.0702 165.504 56.015 165.573C55.7503 165.899 56.0801 166.241 55.739 166.572C55.6191 166.689 54.8221 166.629 54.6085 166.752C54.395 166.874 54.1896 167.12 54.5538 167.248C54.9182 167.376 56.1885 167.236 56.2901 167.428C56.7316 168.262 55.9864 169.088 55.8774 169.921C55.8611 170.044 56.3157 169.942 56.3243 170.124C56.3581 170.795 56.7843 171.953 55.8185 172.535C55.0449 173.001 54.4559 172.414 54.1411 172.771C53.9909 172.943 55.4678 173.129 55.5143 173.171C55.9866 173.576 55.3323 173.858 55.5331 174.223C55.5747 174.298 56.1733 174.225 56.2021 174.289C56.3059 174.508 56.0388 174.738 56.0876 174.948C56.1109 175.042 56.5681 175.024 56.5328 175.111C56.4537 175.318 56.2615 175.501 55.833 175.702C55.7939 175.721 55.2252 175.597 55.2041 175.75C55.1715 175.997 54.7488 176.305 55.1853 176.59C55.3166 176.674 56.3615 176.678 55.6399 176.859C55.4892 176.898 54.2345 176.849 55.3186 177.061C55.4987 177.096 56.9609 177.452 56.0184 177.626C55.7704 177.673 54.7437 177.79 54.905 177.892C54.9308 177.906 55.492 177.85 55.5467 177.935C55.7299 178.231 55.67 178.543 55.8458 178.848C55.8939 178.929 56.4746 178.808 56.5277 178.929C56.6745 179.263 56.5266 179.68 56.3448 180.007C56.2767 180.127 55.7956 180.044 55.7433 180.053C54.8917 180.193 56.0411 180.277 56.1081 180.323C56.5094 180.614 55.9695 180.836 56.1124 181.104C56.1504 181.178 56.6984 181.125 56.7473 181.14C57.2248 181.292 56.2405 181.179 56.1321 181.275C55.8249 181.546 55.8689 181.848 55.9389 182.122C55.9655 182.222 56.6009 182.109 56.6174 182.2C56.7269 182.734 56.6661 183.289 56.3158 183.81C56.2487 183.909 55.7593 183.847 55.6476 183.867C54.8656 184.008 55.9322 184.215 56.0338 184.263C56.4977 184.479 56.065 184.563 56.1457 184.754C56.3132 185.142 56.3612 185.569 56.3474 185.998C56.3281 186.599 56.1875 187.205 56.0842 187.719C55.8563 188.866 55.3908 189.756 55.5117 190.851C55.5188 190.92 56.1697 190.85 56.1842 190.91C56.3411 191.684 56.0867 192.446 56.2748 193.221C56.289 193.285 56.9062 193.193 56.9498 193.295C57.0437 193.505 57.0101 193.77 56.8131 193.982C56.7181 194.085 56.1886 193.947 56.1039 194.051C55.9053 194.293 55.8614 194.553 55.9603 194.801C56.0038 194.907 56.6349 194.747 56.6422 194.885C56.7048 195.822 56.8135 196.743 55.9962 197.69C55.9401 197.755 54.6573 197.812 54.9033 197.95C55.2593 197.96 55.6781 197.96 56.0586 197.964C56.2635 199.328 55.8189 200.679 55.7501 202.047C55.7474 202.105 56.427 202.005 56.4252 202.117C56.4151 202.763 56.6034 203.391 55.9278 204.052C55.8618 204.118 54.6661 204.084 54.8469 204.277C54.8799 204.311 55.0394 204.602 55.2989 204.678C55.3381 204.688 55.8962 204.635 55.9125 204.729C55.9972 205.274 55.8698 205.845 55.5288 206.39C55.4727 206.477 54.8784 206.384 54.8332 206.446C54.5177 206.89 54.9695 207.373 54.4299 207.797C54.0666 208.081 53.0392 207.976 52.0279 208.127C51.8853 208.148 51.8627 208.324 51.2743 208.333C49.7948 208.356 48.1747 208.271 46.5977 208.306C46.258 208.313 46.6238 208.549 45.803 208.409C45.7481 208.4 45.4756 208.229 45.1972 208.187C45.0046 208.158 44.4063 208.21 44.1598 208.151C43.9136 208.091 44.4152 208.025 44.1256 207.926C43.8325 207.827 43.1518 207.871 43.0712 207.673ZM61.6344 167.702C61.4781 167.13 61.455 169.224 61.624 168.723C61.6322 168.696 61.6424 167.73 61.6344 167.702ZM80.4791 167.643C80.299 166.715 80.1238 168.069 80.2492 168.785C80.3746 169.501 80.534 167.925 80.4791 167.643ZM82.6143 167.025C82.3947 166.291 82.2794 169.258 82.5508 168.664C82.5665 168.631 82.6271 167.068 82.6143 167.025ZM51.74 207.427C51.7122 207.429 51.6851 207.556 51.7126 207.559C52.3776 207.626 52.4313 207.373 51.74 207.427ZM84.7348 166.346C84.6708 165.943 84.4442 166.401 84.5237 166.902C84.5877 167.306 84.8146 166.848 84.7348 166.346ZM53.4832 165.468C53.4808 165.436 53.3902 165.408 53.392 165.585C53.3982 166.153 53.5242 165.992 53.4832 165.468ZM88.3072 166.405C87.7825 166.28 87.5267 163.82 88.0941 164.112C88.1968 164.164 87.8494 164.888 87.976 165.112C88.2078 165.521 88.409 163.986 88.6348 164.817C88.6756 164.969 88.337 166.418 88.3062 166.409C88.3065 166.408 88.3069 166.407 88.3072 166.405ZM61.5444 165.187C61.5412 165.16 61.4158 165.133 61.4128 165.161C61.3449 165.825 61.5976 165.879 61.5444 165.187ZM48.9988 166.977C48.9398 166.984 48.8846 167.275 48.939 167.285C50.0259 167.436 50.1407 166.848 48.9988 166.977ZM69.9901 163.655C70.0296 163.463 70.0712 163.319 70.1132 163.232L70.164 163.233C70.2732 163.021 70.375 163.156 70.437 163.755C70.3426 163.722 70.2473 163.707 70.1521 163.685L70.1132 163.685C70.0722 163.677 70.0311 163.668 69.9901 163.655Z" fill="#DEDEDE" fill-opacity="0.66"/>
<path d="M323.627 143.639L309.959 128.956L312.199 126.871L325.867 141.554L323.627 143.639ZM326.614 140.859L312.945 126.176L315.185 124.091L328.853 138.774L326.614 140.859ZM329.6 138.079L315.932 123.396L316.678 122.701L330.347 137.384L329.6 138.079ZM332.586 135.299L318.918 120.616L319.665 119.921L333.333 134.604L332.586 135.299ZM334.079 133.909L320.411 119.226L321.158 118.531L334.826 133.214L334.079 133.909ZM337.406 145.816C336.975 146.217 336.493 146.465 335.96 146.558C335.411 146.667 334.836 146.598 334.236 146.352C333.62 146.089 333.003 145.626 332.385 144.963C331.736 144.266 331.311 143.593 331.11 142.944C330.924 142.312 330.904 141.742 331.051 141.234C331.213 140.743 331.484 140.319 331.866 139.964C332.281 139.578 332.73 139.346 333.214 139.267C333.698 139.188 334.177 139.253 334.651 139.462L334.358 140.246L334.306 140.34L334.235 140.314L334.166 140.239C334.104 140.173 333.978 140.12 333.786 140.081C333.484 140.022 333.211 140.028 332.968 140.1C332.725 140.171 332.512 140.292 332.329 140.462C331.832 140.925 331.643 141.504 331.762 142.198C331.883 142.86 332.298 143.572 333.009 144.335C333.441 144.8 333.901 145.161 334.389 145.419C334.878 145.645 335.332 145.75 335.749 145.733C336.184 145.7 336.55 145.545 336.849 145.267C337.081 145.05 337.242 144.792 337.333 144.49C337.426 144.157 337.438 143.82 337.37 143.481L338.144 143.364C338.238 143.865 338.23 144.306 338.12 144.687C338.009 145.1 337.771 145.476 337.406 145.816ZM335.584 132.508L321.916 117.825L322.663 117.13L336.331 131.813L335.584 132.508ZM337.077 131.118L323.409 116.435L325.649 114.35L339.317 129.033L337.077 131.118ZM340.064 128.338L326.396 113.655L327.142 112.96L340.81 127.643L340.064 128.338ZM341.557 126.948L327.889 112.265L328.635 111.57L342.304 126.253L341.557 126.948ZM344.543 124.168L330.875 109.485L333.115 107.4L346.783 122.083L344.543 124.168ZM341.88 130.688L342.627 129.993L342.696 130.068C342.694 130.132 342.708 130.197 342.737 130.262C342.768 130.295 342.838 130.37 342.946 130.486L347.417 135.289L350.179 132.718L350.689 133.265L347.255 136.462L341.88 130.688ZM347.541 121.377L333.873 106.695L334.62 106L348.288 120.682L347.541 121.377ZM349.034 119.987L335.366 105.305L337.606 103.22L351.274 117.902L349.034 119.987ZM352.021 117.207L338.352 102.525L339.099 101.83L352.767 116.512L352.021 117.207ZM355.007 114.427L341.339 99.7446L343.579 97.6596L357.247 112.342L355.007 114.427ZM357.993 111.647L344.325 96.9646L345.072 96.2696L358.74 110.952L357.993 111.647ZM358.827 124.668L359.971 123.602L355.616 118.924L354.546 119.92L354.036 119.372L356.898 116.708L357.408 117.256L356.263 118.321L360.618 123L361.813 121.888L362.323 122.435L359.336 125.215L358.827 124.668ZM359.498 110.246L345.83 95.5637L348.07 93.4788L361.738 108.162L359.498 110.246ZM362.485 107.467L348.816 92.7838L351.056 90.6988L364.724 105.382L362.485 107.467ZM365.471 104.687L351.803 90.0038L352.549 89.3088L366.217 103.992L365.471 104.687ZM368.457 101.907L354.789 87.2238L355.536 86.5288L369.204 101.212L368.457 101.907ZM369.95 100.517L356.282 85.8338L357.029 85.1388L370.697 99.8216L369.95 100.517ZM373.277 112.424C372.846 112.825 372.364 113.072 371.831 113.166C371.282 113.274 370.707 113.206 370.106 112.96C369.49 112.697 368.873 112.234 368.256 111.57C367.607 110.873 367.182 110.201 366.981 109.552C366.795 108.92 366.775 108.35 366.922 107.842C367.084 107.35 367.355 106.927 367.737 106.572C368.152 106.186 368.601 105.953 369.085 105.874C369.569 105.795 370.048 105.861 370.521 106.07L370.229 106.854L370.177 106.948L370.106 106.921L370.037 106.847C369.975 106.78 369.848 106.728 369.657 106.689C369.355 106.63 369.082 106.636 368.839 106.708C368.596 106.779 368.383 106.9 368.2 107.07C367.703 107.533 367.513 108.112 367.633 108.805C367.754 109.467 368.169 110.18 368.88 110.943C369.312 111.408 369.772 111.769 370.26 112.027C370.749 112.253 371.203 112.357 371.62 112.34C372.054 112.308 372.421 112.152 372.719 111.874C372.952 111.658 373.113 111.399 373.204 111.098C373.296 110.764 373.308 110.428 373.24 110.089L374.014 109.972C374.109 110.473 374.101 110.913 373.991 111.294C373.88 111.707 373.642 112.084 373.277 112.424ZM371.455 99.1157L357.787 84.433L360.027 82.348L373.695 97.0307L371.455 99.1157ZM374.441 96.3357L360.773 81.653L361.52 80.958L375.188 95.6407L374.441 96.3357ZM375.935 94.9457L362.266 80.263L363.013 79.568L376.681 94.2507L375.935 94.9457ZM377.428 93.5558L363.76 78.873L364.506 78.178L378.174 92.8608L377.428 93.5558ZM380.414 90.7758L366.746 76.093L368.986 74.008L382.654 88.6908L380.414 90.7758ZM381.359 99.3258L381.35 100.264L383.574 102.653L382.902 103.278L377.527 97.5047L378.299 96.7865L378.368 96.8612C378.366 96.9252 378.379 96.9899 378.409 97.0551C378.423 97.1037 378.485 97.1861 378.593 97.3022L380.678 99.542L380.59 94.6071C380.755 94.4847 380.92 94.3463 381.086 94.1918L381.335 93.9602L381.461 98.4874L386.859 99.5947L386.06 100.384L381.359 99.3258ZM383.412 87.9849L369.744 73.3022L370.49 72.6072L384.159 87.2899L383.412 87.9849ZM386.398 85.205L372.73 70.5222L374.97 68.4372L388.638 83.12L386.398 85.205ZM389.385 82.425L375.716 67.7422L376.463 67.0472L390.131 81.73L389.385 82.425ZM390.878 81.035L377.21 66.3522L379.449 64.2673L393.118 78.95L390.878 81.035ZM393.864 78.255L380.196 63.5723L380.943 62.8773L394.611 77.56L393.864 78.255ZM395.369 76.8542L381.701 62.1714L383.941 60.0864L397.609 74.7692L395.369 76.8542ZM398.355 74.0742L384.687 59.3914L386.927 57.3064L400.595 71.9892L398.355 74.0742ZM401.342 71.2942L387.673 56.6115L388.42 55.9165L402.088 70.5992L401.342 71.2942ZM402.835 69.9042L389.167 55.2215L389.913 54.5265L403.581 69.2092L402.835 69.9042ZM405.821 67.1242L392.153 52.4415L392.9 51.7465L406.568 66.4292L405.821 67.1242ZM401.416 75.2663L401.939 74.7798L405.998 76.2963L404.801 72.1156L405.298 71.6523L410.673 77.4258L410.051 78.005L405.997 73.65L406.93 77.1476L406.681 77.3792L403.357 76.1537L407.388 80.4838L406.791 81.0398L401.416 75.2663ZM407.326 65.7234L393.658 51.0406L395.897 48.9557L409.566 63.6384L407.326 65.7234ZM410.312 62.9434L396.644 48.2607L397.391 47.5657L411.059 62.2484L410.312 62.9434ZM411.805 61.5534L398.137 46.8707L400.377 44.7857L414.045 59.4684L411.805 61.5534ZM416.285 57.3834L402.617 42.7007L403.363 42.0057L417.032 56.6884L416.285 57.3834ZM417.778 55.9934L404.11 41.3107L404.856 40.6157L418.525 55.2985L417.778 55.9934ZM413.547 63.9733L417.081 60.6837L417.614 61.2561L414.677 63.9897L416.438 65.881L418.877 63.6107L419.433 64.208L416.994 66.4783L418.986 68.6185L421.898 65.908L422.431 66.4804L418.922 69.7469L413.547 63.9733Z" fill="white" fill-opacity="0.65"/>
</svg>
