<svg xmlns="http://www.w3.org/2000/svg" width="1484" height="1034" fill="none" xmlns:v="https://vecta.io/nano"><g clip-path="url(#O)"><g clip-path="url(#P)"><path d="M558.722 111.919L72.286 245.087v269.899l.023-.006c-.064 7.029 5.017 14.457 15.054 20.251l78.044 45.06c18.236 10.528 45.82 11.672 61.613 2.553l321.042-185.353c7.138-4.121 10.61-9.636 10.626-15.412l.035-.01v-270.15z" fill="url(#A)"/><path d="M72.286 328.883l.023-.007c-.064 7.03 5.017 14.458 15.054 20.252l78.044 45.058c18.236 10.528 45.82 11.672 61.613 2.554l321.042-185.353c7.138-4.12 10.61-9.636 10.626-15.411l.035-.01v-84.047L72.286 245.087v83.796z" fill="url(#B)"/><path d="M403.981 44.156L82.939 229.509c-15.793 9.119-13.812 25.044 4.424 35.573l78.044 45.058c18.236 10.528 45.821 11.672 61.613 2.554l321.041-185.353c15.793-9.118 13.811-25.044-4.424-35.573L465.594 46.71c-18.236-10.528-45.82-11.672-61.613-2.554z" fill="url(#C)"/><path d="M260.172 178.97l87.609-50.771a10.98 10.98 0 0 1 5.496-1.479c1.93-.002 3.827.506 5.498 1.471l48.2 27.828c3.031 1.749 3.039 6.122.015 7.884l-87.386 50.885a10.99 10.99 0 0 1-5.505 1.492c-1.934.003-3.835-.504-5.51-1.471l-48.41-27.95c-3.035-1.752-3.039-6.132-.007-7.889z" fill="#6a6676"/><path d="M470.087 203.88v21.053c0 4.677 5.062 7.6 9.113 5.261l44.324-25.59c2.158-1.246 3.95-3.038 5.196-5.196s1.902-4.606 1.902-7.098v-21.053c0-4.677-5.062-7.6-9.113-5.262l-44.324 25.591c-2.158 1.246-3.95 3.038-5.196 5.196s-1.902 4.606-1.902 7.098zM246.229 521.562v17.742c0 3.941 4.266 6.405 7.68 4.434l37.353-21.566a11.97 11.97 0 0 0 4.38-4.379c1.05-1.819 1.603-3.882 1.603-5.983v-17.742c0-3.941-4.266-6.405-7.68-4.434L252.211 511.2c-1.818 1.05-3.328 2.561-4.379 4.38a11.96 11.96 0 0 0-1.603 5.982z" fill="#fff"/><path d="M394.334 242.662c23.123-13.35 44.181-13.734 59.997-3.576l51.775 29.954-113.952 247.647-54.204-31.222c-19.865-10.275-32.54-35.95-32.54-72.893-.001-65.483 39.812-141.554 88.924-169.91z" fill="url(#D)"/><path d="M362.674 445.532c0 65.483 39.813 95.581 88.925 67.225s88.925-104.425 88.925-169.908-39.813-95.581-88.925-67.226-88.925 104.426-88.925 169.909z" fill="url(#E)"/><path d="M384.489 432.938c0 49.418 30.046 72.132 67.11 50.734s67.109-78.807 67.109-128.226-30.045-72.133-67.109-50.734-67.11 78.807-67.11 128.226z" fill="url(#F)"/><path d="M484.109 297.142c-9.633-1.567-20.713.759-32.51 7.57-37.063 21.4-67.109 78.808-67.109 128.226 0 20.334 5.096 36.133 13.665 46.213 9.633 1.566 20.714-.759 32.511-7.57 37.063-21.399 67.109-78.807 67.109-128.225 0-20.336-5.096-36.135-13.666-46.214z" fill="url(#G)"/><path d="M226.076 247.172l.001-22.7-80.473 7.143v22.684.03c.18 5.168 3.409 10.079 9.812 13.776 14.549 8.4 39.963 7.347 56.763-2.352 9.208-5.317 13.916-12.128 13.897-18.581z" fill="url(#H)"/><path d="M159.492 213.273c16.8-9.7 42.213-10.753 56.762-2.353s12.725 23.072-4.075 32.772-42.214 10.753-56.763 2.352-12.724-23.073 4.076-32.771z" fill="url(#I)"/><path d="M229.577 286.821v-15.926l-56.459 5.011v15.915.02c.126 3.626 2.392 7.072 6.884 9.665 10.208 5.893 28.038 5.154 39.824-1.651 6.461-3.729 9.765-8.507 9.751-13.034z" fill="url(#J)"/><path d="M203.291 289.64c15.555-1.896 27.295-10.567 26.222-19.368s-14.552-14.397-30.107-12.501-27.295 10.568-26.222 19.368 14.552 14.397 30.107 12.501z" fill="#302425"/><path d="M295.725 239.794v-15.926l-56.458 5.011v15.915.02c.126 3.626 2.393 7.072 6.885 9.665 10.207 5.893 28.037 5.154 39.823-1.65 6.461-3.729 9.764-8.508 9.75-13.035z" fill="url(#K)"/><path d="M249.011 216.011c11.786-6.805 29.616-7.544 39.824-1.651s8.928 16.187-2.86 22.992-29.616 7.544-39.823 1.651-8.927-16.188 2.859-22.992z" fill="url(#L)"/><path d="M436.73 89.986c9.482-5.474 23.826-6.07 32.037-1.328s7.183 13.022-2.299 18.498-23.827 6.069-32.038 1.328-7.182-13.023 2.3-18.498z" fill="#a9a9a9"/><path d="M451.599 304.711c-13.894 8.023-26.802 21.105-37.511 36.93l68.079 68.079c9.739-21.155 15.609-44.538 15.609-66.366 0-20.334-5.096-36.133-13.667-46.213-9.633-1.566-20.713.759-32.51 7.57z" fill="url(#M)"/></g><path d="M384 421l11-47.5 11.5-19.5 10-17.5L434 317l15-12.5 14-5.5 12-3 13.5 2 8.5 4 1085 673.5L977.5 1218l-610-80L384 421z" fill="url(#N)"/></g><defs><linearGradient id="A" x1="72.286" y1="111.919" x2="558.722" y2="111.919" href="#Q"><stop stop-color="#020008"/><stop offset="1" stop-color="#676767"/></linearGradient><linearGradient id="B" x1="72.286" y1="111.919" x2="558.722" y2="111.919" href="#Q"><stop stop-color="#8f8f8f"/><stop offset="1" stop-color="#d6d6d6"/></linearGradient><linearGradient id="C" x1="72.278" y1="38" x2="558.722" y2="38" href="#Q"><stop stop-color="#8f8f8f"/><stop offset="1" stop-color="#d6d6d6"/></linearGradient><linearGradient id="D" x1="305.41" y1="231.996" x2="506.106" y2="231.996" href="#Q"><stop stop-color="#151515"/><stop offset=".547" stop-color="#7d7c80"/><stop offset=".992" stop-color="#f6f6f6"/></linearGradient><linearGradient id="E" x1="362.674" y1="264.952" x2="540.524" y2="264.952" href="#Q"><stop stop-color="#020008"/><stop offset="1" stop-color="#676767"/></linearGradient><linearGradient id="F" x1="384.489" y1="296.659" x2="518.708" y2="296.659" href="#Q"><stop stop-color="#151515"/><stop offset=".547" stop-color="#7d7c80"/><stop offset=".992" stop-color="#f6f6f6"/></linearGradient><linearGradient id="G" x1="384.49" y1="296.674" x2="497.775" y2="296.674" href="#Q"><stop offset=".019" stop-color="#9c9999"/><stop offset="1" stop-color="#fff"/></linearGradient><linearGradient id="H" x1="145.6" y1="224.472" x2="226.077" y2="224.472" href="#Q"><stop offset=".019" stop-color="#9c9999"/><stop offset="1" stop-color="#fff"/></linearGradient><linearGradient id="I" x1="145.594" y1="205.249" x2="226.076" y2="205.249" href="#Q"><stop stop-color="#dfdaef"/><stop offset="1" stop-color="#0a0400"/></linearGradient><linearGradient id="J" x1="177.938" y1="288.191" x2="207.885" y2="288.191" href="#Q"><stop stop-color="#d0babc"/><stop offset="1" stop-color="#171414"/></linearGradient><linearGradient id="K" x1="239.264" y1="223.868" x2="295.725" y2="223.868" href="#Q"><stop offset=".019" stop-color="#9c9999"/><stop offset="1" stop-color="#fff"/></linearGradient><linearGradient id="L" x1="239.261" y1="210.381" x2="295.726" y2="210.381" href="#Q"><stop stop-color="#dfdaef"/><stop offset="1" stop-color="#0a0400"/></linearGradient><linearGradient id="M" x1="406.819" y1="415.074" x2="504.197" y2="317.695" href="#Q"><stop stop-color="#fff"/><stop offset="1" stop-color="#fff" stop-opacity="0"/></linearGradient><linearGradient id="N" x1="407.5" y1="312" x2="500.5" y2="1026" href="#Q"><stop stop-color="#fff"/><stop offset="1" stop-color="#737373" stop-opacity="0"/></linearGradient><clipPath id="O"><path fill="#fff" d="M0 0h1484v1034H0z"/></clipPath><clipPath id="P"><path fill="#fff" transform="translate(40 38)" d="M0 0h551v551H0z"/></clipPath><linearGradient id="Q" gradientUnits="userSpaceOnUse"/></defs></svg>